<svg aria-label="Link a la página principal." role="img" viewBox="0 -1 511.999 511" xmlns="http://www.w3.org/2000/svg">
  <path fill="currentColor" d="M380.59 204.04l30.082-1.907.16-.012c21.438-1.809 40.68-13.039 52.797-30.82l23.781-34.89c20.7-30.376 28.719-67.063 22.574-103.302a31.88 31.88 0 0 0-10.246-18.46 31.872 31.872 0 0 0-19.558-7.962c-36.727-1.757-72.176 10.606-99.848 34.797l-31.789 27.793c-16.2 14.16-25.043 34.61-24.27 56.114.004.05.004.105.008.16l1.715 30.09c.668 11.73-3.633 23.304-11.777 31.734L65.867 442.508c-6.648 6.933-10.082 16.445-9.664 26.785.461 11.383 5.684 22.562 13.973 29.91 7.488 6.637 17.781 10.418 28.07 10.418 1.102 0 2.203-.043 3.3-.133 10.317-.824 19.352-5.37 25.47-12.847L350.48 219.555c7.41-9.118 18.387-14.774 30.11-15.516zm-42.04 5.858L115.106 486.961c-3.414 4.172-8.664 6.742-14.78 7.23-7.278.582-14.74-1.84-19.966-6.472-5.226-4.637-8.523-11.754-8.816-19.047-.25-6.129 1.668-11.649 5.363-15.5l248.332-255.113c11.133-11.52 16.992-27.297 16.086-43.29l-1.715-30.011c-.582-16.832 6.352-32.836 19.036-43.926l31.789-27.793c24.671-21.566 56.289-32.578 89.015-31.023 3.727.18 7.313 1.64 10.106 4.117a16.47 16.47 0 0 1 5.297 9.539c5.476 32.308-1.672 65.012-20.125 92.09l-23.782 34.894c-9.488 13.922-24.547 22.723-41.328 24.164l-30 1.899c-15.984 1.015-30.945 8.726-41.066 21.18zm0 0"/>
  <path fill="currentColor" d="M497.82 440.57L331.3 288.902a7.677 7.677 0 0 0-10.843.504 7.68 7.68 0 0 0 .508 10.844L487.44 451.883c3.961 3.66 6.207 9.054 6.329 15.187.144 7.297-2.72 14.598-7.66 19.54-4.938 4.937-12.227 7.808-19.54 7.66-6.132-.122-11.527-2.368-15.148-6.286L303.039 325.078a7.677 7.677 0 0 0-10.844-.508 7.677 7.677 0 0 0-.504 10.844L440.11 498.36c6.524 7.055 15.813 11.055 26.16 11.258.27.004.536.008.805.008 11.121 0 22.242-4.512 29.887-12.16 7.836-7.836 12.379-19.309 12.152-30.695-.203-10.348-4.199-19.637-11.293-26.2zm0 0M92.61 202.586a71.071 71.071 0 0 0 46.632 18.793l30.14.094c11.75.035 23.044 5.023 30.97 13.66l13.277 14.574a7.65 7.65 0 0 0 5.676 2.508 7.64 7.64 0 0 0 5.164-2 7.673 7.673 0 0 0 .508-10.844l-13.297-14.594c-10.828-11.804-26.227-18.601-42.246-18.656l-30.059-.094a55.766 55.766 0 0 1-36.02-14.41L16.008 87.781a2.64 2.64 0 0 1 .156-3.582c.672-.676 1.461-.773 1.871-.773s1.2.097 1.875.773l79.508 79.512c7.86 7.86 20.648 7.86 28.508-.004l9.344-9.34v-.004l16.59-16.59s.003 0 .003-.003l.004-.004 9.34-9.34c7.86-7.86 7.86-20.649 0-28.508L83.699 20.41a2.655 2.655 0 0 1 0-3.746 2.64 2.64 0 0 1 3.582-.156l103.836 87.351a55.74 55.74 0 0 1 14.414 36.016l.09 30.063c.055 16.015 6.856 31.414 18.676 42.265l14.226 12.957a7.676 7.676 0 0 0 10.844-.504 7.68 7.68 0 0 0-.508-10.844l-14.203-12.937c-8.66-7.945-13.644-19.242-13.683-30.988l-.094-30.14c0-.056 0-.11-.004-.165a71.071 71.071 0 0 0-18.79-46.473 7.67 7.67 0 0 0-.702-.675L97.16 4.762c-7.203-6.063-17.656-5.61-24.312 1.047-7.02 7.02-7.02 18.437 0 25.453l79.507 79.511a4.814 4.814 0 0 1 0 6.801l-3.917 3.914-88.614-88.61c-2.996-3-7.855-3-10.851 0a7.674 7.674 0 0 0 0 10.852l88.613 88.614-5.742 5.738-88.614-88.61a7.674 7.674 0 0 0-10.851 0c-3 2.997-3 7.856 0 10.852l88.61 88.614-3.915 3.917a4.814 4.814 0 0 1-6.8 0L30.761 73.348c-3.399-3.399-7.918-5.274-12.727-5.274S8.707 69.95 5.31 73.348c-6.657 6.656-7.106 17.109-1.047 24.316l87.675 104.219c.208.25.434.484.672.703zm0 0"/>
</svg>
