<svg aria-label="Link a la página principal." role="img" viewBox="0 0 380.721 380.721" xmlns="http://www.w3.org/2000/svg">
  <path fill="currentColor" d="M344.308 327.389l.116-.047s-82.888-84.119-91.021-92.252c-5.042-1.487-34.53-14.454-35.041-38.83 12.583-14.418 30.882-28.268 57.907-28.541a.856.856 0 0 1 .256-.035c12.223.331 24.562-3.724 34.38-12.304.685-.604 2.3-2.248 2.3-2.248l67.517-85.089-8.11-8.139-82.597 87.448-9.748-9.777 85.014-85.008-7.146-7.105-85.514 85.531-8.087-8.093 85.525-85.531-7.865-7.849-85.525 85.52-9.586-9.568 88.279-82.818-7.413-7.413-81.354 63.38s-2.95 2.486-3.973 3.521c-11.166 11.16-15.965 26.305-14.361 40.892-1.127 18.503-7.11 32.242-14.871 42.687C61.724 17.344 4.531 33.215 4.531 33.215L0 37.81s101.983 102.262 164.997 165.398c-22.11 22.134-128.7 128.724-128.7 128.724l.011.023c-.093.092-.209.127-.319.243-7.616 7.622-7.587 19.961.012 27.571 7.604 7.61 19.979 7.61 27.565.023.122-.116.157-.244.227-.314l.023.023S170.54 252.808 192.522 230.836c11.525 11.538 19.217 19.241 20.728 20.751 9.341 9.389 103.383 103.43 103.383 103.43h.116c0 .116.104.221.209.268 7.599 7.656 20.077 7.656 27.664 0 7.703-7.588 7.703-20.02 0-27.664-.093-.117-.198-.163-.314-.232z"/>
</svg>
